<svg xmlns="http://www.w3.org/2000/svg" viewBox="0 0 800 600" width="100%" height="100%">
  <style>
    @keyframes typing {
      from { width: 0; }
      to { width: 100%; }
    }
    @keyframes blink {
      50% { opacity: 0; }
    }
    @keyframes float {
      0% { transform: translateY(0px); }
      50% { transform: translateY(-20px); }
      100% { transform: translateY(0px); }
    }
    @keyframes rotate {
      from { transform: rotate(0deg); }
      to { transform: rotate(360deg); }
    }
    @keyframes fadeIn {
      from { opacity: 0; }
      to { opacity: 1; }
    }
    @keyframes pulse {
      0% { transform: scale(1); }
      50% { transform: scale(1.1); }
      100% { transform: scale(1); }
    }
    .code-line {
      stroke-dasharray: 500;
      stroke-dashoffset: 500;
      animation: dash 3s linear forwards infinite;
    }
    @keyframes dash {
      to { stroke-dashoffset: 0; }
    }
    .gear {
      transform-origin: center;
      animation: rotate 8s linear infinite;
    }
    .float {
      animation: float 6s ease-in-out infinite;
    }
    .pulse {
      animation: pulse 2s ease-in-out infinite;
    }
    .typing-cursor {
      animation: blink 1s step-end infinite;
    }
    .typing-text {
      animation: typing 3.5s steps(40, end) infinite alternate;
    }
    .fade-in {
      animation: fadeIn 2s ease-in-out forwards;
    }
  </style>
  
  <!-- Fondo con gradiente moderno -->
  <defs>
    <linearGradient id="bg-gradient" x1="0%" y1="0%" x2="100%" y2="100%">
      <stop offset="0%" style="stop-color:#1A1A1A" />
      <stop offset="100%" style="stop-color:#2A2A2A" />
    </linearGradient>
    <linearGradient id="glow-gradient" x1="0%" y1="0%" x2="100%" y2="100%">
      <stop offset="0%" style="stop-color:#00BFFF" />
      <stop offset="100%" style="stop-color:#39FF14" />
    </linearGradient>
    <filter id="glow" x="-20%" y="-20%" width="140%" height="140%">
      <feGaussianBlur stdDeviation="5" result="blur" />
      <feComposite in="SourceGraphic" in2="blur" operator="over" />
    </filter>
  </defs>
  
  <rect width="100%" height="100%" fill="url(#bg-gradient)" />
  
  <!-- Elementos de código flotantes -->
  <g class="float" filter="url(#glow)">
    <!-- Líneas de código -->
    <g transform="translate(100, 150)" opacity="0.8">
      <rect x="0" y="0" width="250" height="20" rx="3" fill="#2A2A2A" class="fade-in" style="animation-delay: 0.2s" />
      <rect x="20" y="0" width="150" height="20" rx="3" fill="#00BFFF" opacity="0.7" class="fade-in" style="animation-delay: 0.4s" />
      
      <rect x="0" y="30" width="300" height="20" rx="3" fill="#2A2A2A" class="fade-in" style="animation-delay: 0.6s" />
      <rect x="40" y="30" width="120" height="20" rx="3" fill="#39FF14" opacity="0.7" class="fade-in" style="animation-delay: 0.8s" />
      
      <rect x="0" y="60" width="280" height="20" rx="3" fill="#2A2A2A" class="fade-in" style="animation-delay: 1s" />
      <rect x="30" y="60" width="180" height="20" rx="3" fill="#00BFFF" opacity="0.7" class="fade-in" style="animation-delay: 1.2s" />
      
      <rect x="0" y="90" width="320" height="20" rx="3" fill="#2A2A2A" class="fade-in" style="animation-delay: 1.4s" />
      <rect x="50" y="90" width="100" height="20" rx="3" fill="#39FF14" opacity="0.7" class="fade-in" style="animation-delay: 1.6s" />
    </g>
    
    <!-- Símbolos de código -->
    <g transform="translate(450, 200)">
      <text x="0" y="0" font-family="monospace" font-size="40" fill="url(#glow-gradient)" class="typing-cursor">&lt;/&gt;</text>
      <text x="70" y="0" font-family="monospace" font-size="40" fill="url(#glow-gradient)" class="typing-cursor" style="animation-delay: 0.5s">{}</text>
      <text x="140" y="0" font-family="monospace" font-size="40" fill="url(#glow-gradient)" class="typing-cursor" style="animation-delay: 1s">()</text>
    </g>
  </g>
  
  <!-- Engranajes giratorios -->
  <g transform="translate(150, 400)" class="gear" opacity="0.8">
    <path d="M50,20 L60,40 L80,50 L60,60 L50,80 L40,60 L20,50 L40,40 Z" fill="#00BFFF" />
    <circle cx="50" cy="50" r="10" fill="#2A2A2A" />
  </g>
  
  <g transform="translate(600, 300)" class="gear" style="animation-direction: reverse" opacity="0.8">
    <path d="M50,20 L60,40 L80,50 L60,60 L50,80 L40,60 L20,50 L40,40 Z" fill="#39FF14" />
    <circle cx="50" cy="50" r="10" fill="#2A2A2A" />
  </g>
  
  <!-- Líneas de conexión animadas -->
  <g opacity="0.6">
    <path d="M200,200 C300,100 400,300 600,200" stroke="#00BFFF" stroke-width="2" fill="none" class="code-line" />
    <path d="M150,300 C250,400 450,200 550,350" stroke="#39FF14" stroke-width="2" fill="none" class="code-line" style="animation-delay: 1s" />
  </g>
  
  <!-- Círculos pulsantes -->
  <circle cx="200" cy="200" r="5" fill="#00BFFF" class="pulse" />
  <circle cx="600" cy="200" r="5" fill="#00BFFF" class="pulse" style="animation-delay: 0.5s" />
  <circle cx="150" cy="300" r="5" fill="#39FF14" class="pulse" />
  <circle cx="550" cy="350" r="5" fill="#39FF14" class="pulse" style="animation-delay: 0.5s" />
</svg>